# xmcd CD database file
#
# Track frame offsets:
#	150
#	16285
#	34368
#	56835
#	72252
#	86752
#	106057
#	122277
#	135920
#	152340
#	176075
#	193420
#	213827
#	228747
#
# Disc length: 3186 seconds
#
# Revision: 2
# Processed by: cddbd v1.5.2PL0 Copyright (c) Steve Scherf et al.
# Submitted via: CDex 1.51
#
DISCID=bb0c700e
DTITLE=Raphael Gualazzi - Reality And Fantasy
DYEAR=2011
DGENRE=Jazz
TTITLE0=Madness Of Love
TTITLE1=Icarus
TTITLE2=Tuesday
TTITLE3=Reality And Fantasy (Gilles Peterson Remix)
TTITLE4=Scandalize Me
TTITLE5=Behind The Sunrise (feat. ROX)
TTITLE6=A Three Second Breath
TTITLE7=Calda Estate (Dove Sei)
TTITLE8=Out Of My Mind
TTITLE9=Sarò Sarai
TTITLE10=Love Goes Down Slow
TTITLE11=Lady "O"
TTITLE12=Empty Home
TTITLE13=Caravan
EXTD=YEAR: 2011
EXTT0=
EXTT1=
EXTT2=
EXTT3=
EXTT4=
EXTT5=
EXTT6=
EXTT7=
EXTT8=
EXTT9=
EXTT10=
EXTT11=
EXTT12=
EXTT13=
PLAYORDER=
